<svg width="280" height="280" viewBox="0 0 280 280" fill="none" xmlns="http://www.w3.org/2000/svg">
<g clip-path="url(#clip0_133_67439)">
<path d="M0 16C0 7.16344 7.16344 0 16 0H264C272.837 0 280 7.16344 280 16V264C280 272.837 272.837 280 264 280H16C7.16344 280 0 272.837 0 264V16Z" fill="#FAFAFB"/>
<path fill-rule="evenodd" clip-rule="evenodd" d="M253.558 29.4693L248.058 23.9998L247 25.0634L251.965 30.0011L247 34.9387L248.058 36.0023L253.558 30.5329C253.699 30.3921 253.779 30.2007 253.779 30.0011C253.779 29.8014 253.699 29.61 253.558 29.4693Z" fill="#121315"/>
<g clip-path="url(#clip1_133_67439)">
<path d="M82.608 28.2898H80.483C80.4223 27.9413 80.3106 27.6326 80.1477 27.3636C79.9848 27.0909 79.7822 26.8598 79.5398 26.6705C79.2973 26.4811 79.0208 26.339 78.7102 26.2443C78.4034 26.1458 78.072 26.0966 77.7159 26.0966C77.0833 26.0966 76.5227 26.2557 76.0341 26.5739C75.5455 26.8883 75.1629 27.3504 74.8864 27.9602C74.6098 28.5663 74.4716 29.3068 74.4716 30.1818C74.4716 31.072 74.6098 31.822 74.8864 32.4318C75.1667 33.0379 75.5492 33.4962 76.0341 33.8068C76.5227 34.1136 77.0814 34.267 77.7102 34.267C78.0587 34.267 78.3845 34.2216 78.6875 34.1307C78.9943 34.036 79.2689 33.8977 79.5114 33.7159C79.7576 33.5341 79.964 33.3106 80.1307 33.0455C80.3011 32.7803 80.4186 32.4773 80.483 32.1364L82.608 32.1477C82.5284 32.7008 82.3561 33.2197 82.0909 33.7045C81.8295 34.1894 81.4867 34.6174 81.0625 34.9886C80.6383 35.3561 80.142 35.6439 79.5739 35.8523C79.0057 36.0568 78.375 36.1591 77.6818 36.1591C76.6591 36.1591 75.7462 35.9223 74.9432 35.4489C74.1402 34.9754 73.5076 34.2917 73.0455 33.3977C72.5833 32.5038 72.3523 31.4318 72.3523 30.1818C72.3523 28.928 72.5852 27.8561 73.0511 26.9659C73.517 26.072 74.1515 25.3883 74.9545 24.9148C75.7576 24.4413 76.6667 24.2045 77.6818 24.2045C78.3295 24.2045 78.9318 24.2955 79.4886 24.4773C80.0455 24.6591 80.5417 24.9261 80.9773 25.2784C81.4129 25.6269 81.7708 26.0549 82.0511 26.5625C82.3352 27.0663 82.5208 27.642 82.608 28.2898ZM88.3111 36.1705C87.4361 36.1705 86.6804 35.9886 86.044 35.625C85.4115 35.2576 84.9247 34.7386 84.5838 34.0682C84.2429 33.3939 84.0724 32.6004 84.0724 31.6875C84.0724 30.7898 84.2429 30.0019 84.5838 29.3239C84.9285 28.642 85.4096 28.1117 86.027 27.733C86.6444 27.3504 87.3698 27.1591 88.2031 27.1591C88.741 27.1591 89.2486 27.2462 89.7259 27.4205C90.2069 27.5909 90.6312 27.8561 90.9986 28.2159C91.3698 28.5758 91.6615 29.0341 91.8736 29.5909C92.0857 30.1439 92.1918 30.803 92.1918 31.5682V32.1989H85.0384V30.8125H90.2202C90.2164 30.4186 90.1312 30.0682 89.9645 29.7614C89.7978 29.4508 89.5649 29.2064 89.2656 29.0284C88.9702 28.8504 88.6255 28.7614 88.2315 28.7614C87.8111 28.7614 87.4418 28.8636 87.1236 29.0682C86.8054 29.2689 86.5573 29.5341 86.3793 29.8636C86.205 30.1894 86.116 30.5473 86.1122 30.9375V32.1477C86.1122 32.6553 86.205 33.0909 86.3906 33.4545C86.5762 33.8144 86.8357 34.0909 87.169 34.2841C87.5024 34.4735 87.8925 34.5682 88.3395 34.5682C88.6387 34.5682 88.9096 34.5265 89.152 34.4432C89.3944 34.3561 89.6046 34.2292 89.7827 34.0625C89.9607 33.8958 90.0952 33.6894 90.1861 33.4432L92.1065 33.6591C91.9853 34.1667 91.7543 34.6098 91.4134 34.9886C91.0762 35.3636 90.6444 35.6553 90.1179 35.8636C89.5914 36.0682 88.9891 36.1705 88.3111 36.1705ZM99.9261 30.7841V32.4716H95.2784V30.7841H99.9261ZM95.9148 27.2727V36H93.9318V27.2727H95.9148ZM101.273 27.2727V36H99.2955V27.2727H101.273ZM102.376 28.9602V27.2727H110.013V28.9602H107.189V36H105.2V28.9602H102.376ZM116.81 36V28.9432H114.946C114.473 28.9432 114.109 29.053 113.855 29.2727C113.601 29.4924 113.476 29.7652 113.48 30.0909C113.476 30.4167 113.596 30.6856 113.838 30.8977C114.08 31.1098 114.427 31.2159 114.878 31.2159H117.457V32.7159H114.878C114.181 32.7159 113.579 32.6061 113.071 32.3864C112.563 32.1667 112.173 31.8561 111.901 31.4545C111.628 31.053 111.491 30.5833 111.491 30.0455C111.491 29.4848 111.63 28.9981 111.906 28.5852C112.187 28.1686 112.584 27.8466 113.099 27.6193C113.618 27.3883 114.234 27.2727 114.946 27.2727H118.736V36H116.81ZM111.173 36L113.611 31.5227H115.639L113.196 36H111.173ZM127.801 24.0455L128.517 25.375C128.263 25.5947 127.979 25.7538 127.665 25.8523C127.35 25.9508 126.981 26.0152 126.557 26.0455C126.136 26.072 125.636 26.0909 125.057 26.1023C124.405 26.1174 123.873 26.2405 123.46 26.4716C123.047 26.7027 122.731 27.053 122.511 27.5227C122.292 27.9886 122.148 28.5833 122.08 29.3068H122.176C122.449 28.7727 122.831 28.3655 123.324 28.0852C123.816 27.8049 124.394 27.6648 125.057 27.6648C125.78 27.6648 126.419 27.8277 126.972 28.1534C127.528 28.4754 127.962 28.9432 128.273 29.5568C128.587 30.1705 128.744 30.9129 128.744 31.7841C128.744 32.6818 128.576 33.4602 128.239 34.1193C127.902 34.7746 127.422 35.2803 126.801 35.6364C126.184 35.9924 125.451 36.1705 124.602 36.1705C123.758 36.1705 123.023 35.9867 122.398 35.6193C121.777 35.2481 121.295 34.7008 120.955 33.9773C120.617 33.25 120.449 32.3542 120.449 31.2898V30.5057C120.449 28.4527 120.831 26.9205 121.597 25.9091C122.362 24.8977 123.496 24.3826 125 24.3636C125.447 24.3561 125.847 24.3542 126.199 24.358C126.555 24.3617 126.866 24.3447 127.131 24.3068C127.396 24.2689 127.619 24.1818 127.801 24.0455ZM124.614 34.5227C125.034 34.5227 125.398 34.4148 125.705 34.1989C126.011 33.9792 126.246 33.6686 126.409 33.267C126.576 32.8655 126.659 32.3902 126.659 31.8409C126.659 31.2992 126.576 30.839 126.409 30.4602C126.242 30.0777 126.006 29.786 125.699 29.5852C125.392 29.3845 125.027 29.2841 124.602 29.2841C124.284 29.2841 123.998 29.3409 123.744 29.4545C123.491 29.5682 123.275 29.7348 123.097 29.9545C122.919 30.1742 122.782 30.4413 122.688 30.7557C122.593 31.0701 122.542 31.4318 122.534 31.8409C122.534 32.6629 122.72 33.3163 123.091 33.8011C123.462 34.2822 123.97 34.5227 124.614 34.5227ZM130.494 39.2727V27.2727H132.517V28.7159H132.636C132.742 28.5038 132.892 28.2784 133.085 28.0398C133.278 27.7973 133.54 27.5909 133.869 27.4205C134.199 27.2462 134.619 27.1591 135.131 27.1591C135.805 27.1591 136.413 27.3314 136.955 27.6761C137.5 28.017 137.932 28.5227 138.25 29.1932C138.572 29.8598 138.733 30.678 138.733 31.6477C138.733 32.6061 138.576 33.4205 138.261 34.0909C137.947 34.7614 137.519 35.2727 136.977 35.625C136.436 35.9773 135.822 36.1534 135.136 36.1534C134.636 36.1534 134.222 36.0701 133.892 35.9034C133.563 35.7367 133.297 35.536 133.097 35.3011C132.9 35.0625 132.746 34.8371 132.636 34.625H132.551V39.2727H130.494ZM132.511 31.6364C132.511 32.2008 132.591 32.6951 132.75 33.1193C132.913 33.5436 133.146 33.875 133.449 34.1136C133.756 34.3485 134.127 34.4659 134.562 34.4659C135.017 34.4659 135.398 34.3447 135.705 34.1023C136.011 33.8561 136.242 33.5208 136.398 33.0966C136.557 32.6686 136.636 32.1818 136.636 31.6364C136.636 31.0947 136.559 30.6136 136.403 30.1932C136.248 29.7727 136.017 29.4432 135.71 29.2045C135.403 28.9659 135.021 28.8466 134.562 28.8466C134.123 28.8466 133.75 28.9621 133.443 29.1932C133.136 29.4242 132.903 29.7481 132.744 30.1648C132.589 30.5814 132.511 31.072 132.511 31.6364ZM141.886 30.1136H144.46C145.574 30.1136 146.436 30.3845 147.045 30.9261C147.655 31.4678 147.962 32.178 147.966 33.0568C147.962 33.6288 147.822 34.1364 147.545 34.5795C147.273 35.0227 146.875 35.3712 146.352 35.625C145.833 35.875 145.203 36 144.46 36H140.494V27.2727H142.477V34.3125H144.46C144.907 34.3125 145.275 34.1989 145.562 33.9716C145.85 33.7405 145.994 33.4451 145.994 33.0852C145.994 32.7064 145.85 32.3977 145.562 32.1591C145.275 31.9205 144.907 31.8011 144.46 31.8011H141.886V30.1136Z" fill="#121315"/>
<path d="M166.983 36V34.7273L170.92 30.6477C171.341 30.2045 171.688 29.8163 171.96 29.483C172.237 29.1458 172.443 28.8258 172.58 28.5227C172.716 28.2197 172.784 27.8977 172.784 27.5568C172.784 27.1705 172.693 26.8371 172.511 26.5568C172.33 26.2727 172.081 26.0549 171.767 25.9034C171.453 25.7481 171.098 25.6705 170.705 25.6705C170.288 25.6705 169.924 25.7557 169.614 25.9261C169.303 26.0966 169.064 26.3371 168.898 26.6477C168.731 26.9583 168.648 27.322 168.648 27.7386H166.972C166.972 27.0303 167.134 26.411 167.46 25.8807C167.786 25.3504 168.233 24.9394 168.801 24.6477C169.369 24.3523 170.015 24.2045 170.739 24.2045C171.47 24.2045 172.114 24.3504 172.67 24.642C173.231 24.9299 173.669 25.3239 173.983 25.8239C174.297 26.3201 174.455 26.8807 174.455 27.5057C174.455 27.9375 174.373 28.3598 174.21 28.7727C174.051 29.1856 173.773 29.6458 173.375 30.1534C172.977 30.6572 172.424 31.2689 171.716 31.9886L169.403 34.4091V34.4943H174.642V36H166.983ZM181.32 36.1932C180.422 36.1894 179.655 35.9527 179.018 35.483C178.382 35.0133 177.895 34.3295 177.558 33.4318C177.221 32.5341 177.053 31.4527 177.053 30.1875C177.053 28.9261 177.221 27.8485 177.558 26.9545C177.899 26.0606 178.388 25.3788 179.024 24.9091C179.664 24.4394 180.429 24.2045 181.32 24.2045C182.21 24.2045 182.973 24.4413 183.609 24.9148C184.246 25.3845 184.732 26.0663 185.07 26.9602C185.411 27.8504 185.581 28.9261 185.581 30.1875C185.581 31.4564 185.412 32.5398 185.075 33.4375C184.738 34.3314 184.251 35.0152 183.615 35.4886C182.979 35.9583 182.214 36.1932 181.32 36.1932ZM181.32 34.6761C182.107 34.6761 182.723 34.2917 183.166 33.5227C183.613 32.7538 183.837 31.642 183.837 30.1875C183.837 29.2216 183.734 28.4053 183.53 27.7386C183.329 27.0682 183.039 26.5606 182.661 26.2159C182.286 25.8674 181.839 25.6932 181.32 25.6932C180.536 25.6932 179.92 26.0795 179.473 26.8523C179.026 27.625 178.801 28.7367 178.797 30.1875C178.797 31.1572 178.897 31.9773 179.098 32.6477C179.303 33.3144 179.592 33.8201 179.967 34.1648C180.342 34.5057 180.793 34.6761 181.32 34.6761ZM188.077 36V34.7273L192.014 30.6477C192.435 30.2045 192.781 29.8163 193.054 29.483C193.33 29.1458 193.537 28.8258 193.673 28.5227C193.81 28.2197 193.878 27.8977 193.878 27.5568C193.878 27.1705 193.787 26.8371 193.605 26.5568C193.423 26.2727 193.175 26.0549 192.861 25.9034C192.546 25.7481 192.192 25.6705 191.798 25.6705C191.382 25.6705 191.018 25.7557 190.707 25.9261C190.397 26.0966 190.158 26.3371 189.991 26.6477C189.825 26.9583 189.741 27.322 189.741 27.7386H188.065C188.065 27.0303 188.228 26.411 188.554 25.8807C188.88 25.3504 189.327 24.9394 189.895 24.6477C190.463 24.3523 191.109 24.2045 191.832 24.2045C192.563 24.2045 193.207 24.3504 193.764 24.642C194.325 24.9299 194.762 25.3239 195.077 25.8239C195.391 26.3201 195.548 26.8807 195.548 27.5057C195.548 27.9375 195.467 28.3598 195.304 28.7727C195.145 29.1856 194.866 29.6458 194.469 30.1534C194.071 30.6572 193.518 31.2689 192.81 31.9886L190.497 34.4091V34.4943H195.736V36H188.077ZM202.436 36.1591C201.656 36.1591 200.959 36.0246 200.345 35.7557C199.735 35.4867 199.252 35.1136 198.896 34.6364C198.544 34.1553 198.355 33.5985 198.328 32.9659H200.112C200.135 33.3106 200.25 33.6098 200.459 33.8636C200.671 34.1136 200.947 34.3068 201.288 34.4432C201.629 34.5795 202.008 34.6477 202.425 34.6477C202.883 34.6477 203.288 34.5682 203.641 34.4091C203.997 34.25 204.275 34.0284 204.476 33.7443C204.677 33.4564 204.777 33.125 204.777 32.75C204.777 32.3598 204.677 32.017 204.476 31.7216C204.279 31.4223 203.989 31.1875 203.607 31.017C203.228 30.8466 202.769 30.7614 202.232 30.7614H201.249V29.3295H202.232C202.663 29.3295 203.042 29.2519 203.368 29.0966C203.697 28.9413 203.955 28.7254 204.141 28.4489C204.326 28.1686 204.419 27.8409 204.419 27.4659C204.419 27.1061 204.338 26.7936 204.175 26.5284C204.016 26.2595 203.788 26.0492 203.493 25.8977C203.201 25.7462 202.857 25.6705 202.459 25.6705C202.08 25.6705 201.726 25.7405 201.396 25.8807C201.071 26.017 200.805 26.214 200.601 26.4716C200.396 26.7254 200.286 27.0303 200.271 27.3864H198.572C198.591 26.7576 198.777 26.2045 199.129 25.7273C199.485 25.25 199.955 24.8769 200.538 24.608C201.122 24.339 201.769 24.2045 202.482 24.2045C203.228 24.2045 203.872 24.3504 204.413 24.642C204.959 24.9299 205.379 25.3144 205.675 25.7955C205.974 26.2765 206.122 26.803 206.118 27.375C206.122 28.0265 205.94 28.5795 205.572 29.0341C205.209 29.4886 204.724 29.7936 204.118 29.9489V30.0398C204.891 30.1572 205.489 30.464 205.913 30.9602C206.341 31.4564 206.554 32.072 206.55 32.8068C206.554 33.447 206.375 34.0208 206.016 34.5284C205.66 35.036 205.173 35.4356 204.555 35.7273C203.938 36.0152 203.232 36.1591 202.436 36.1591Z" fill="#ACAFB5"/>
</g>
<path fill-rule="evenodd" clip-rule="evenodd" d="M26.4711 29.4693L31.9711 23.9998L33.0289 25.0634L28.0636 30.0011L33.0289 34.9387L31.9711 36.0023L26.4711 30.5329C26.3296 30.3921 26.25 30.2007 26.25 30.0011C26.25 29.8014 26.3296 29.61 26.4711 29.4693Z" fill="#121315"/>
<path d="M23.7479 255V253.668L27.2827 250.202C27.6207 249.861 27.9025 249.558 28.1278 249.293C28.3532 249.027 28.5223 248.771 28.6349 248.522C28.7476 248.273 28.804 248.008 28.804 247.727C28.804 247.405 28.7311 247.13 28.5852 246.901C28.4394 246.669 28.2389 246.49 27.9837 246.364C27.7285 246.238 27.4384 246.175 27.1136 246.175C26.7789 246.175 26.4856 246.245 26.2337 246.384C25.9818 246.52 25.7862 246.714 25.647 246.966C25.5111 247.218 25.4432 247.518 25.4432 247.866H23.6882C23.6882 247.219 23.8357 246.658 24.1307 246.18C24.4257 245.703 24.8317 245.334 25.3487 245.072C25.8691 244.81 26.4657 244.679 27.1385 244.679C27.8213 244.679 28.4212 244.807 28.9382 245.062C29.4553 245.317 29.8563 245.667 30.1413 246.111C30.4297 246.555 30.5739 247.062 30.5739 247.632C30.5739 248.013 30.5009 248.388 30.3551 248.756C30.2093 249.124 29.9524 249.531 29.5845 249.979C29.2199 250.426 28.7079 250.968 28.0483 251.604L26.2933 253.389V253.459H30.728V255H23.7479ZM33.7619 255L38.0922 246.429V246.359H33.0659V244.818H40.0012V246.394L35.676 255H33.7619Z" fill="#93979F"/>
<path d="M59.7479 255V253.668L63.2827 250.202C63.6207 249.861 63.9025 249.558 64.1278 249.293C64.3532 249.027 64.5223 248.771 64.6349 248.522C64.7476 248.273 64.804 248.008 64.804 247.727C64.804 247.405 64.7311 247.13 64.5852 246.901C64.4394 246.669 64.2389 246.49 63.9837 246.364C63.7285 246.238 63.4384 246.175 63.1136 246.175C62.7789 246.175 62.4856 246.245 62.2337 246.384C61.9818 246.52 61.7862 246.714 61.647 246.966C61.5111 247.218 61.4432 247.518 61.4432 247.866H59.6882C59.6882 247.219 59.8357 246.658 60.1307 246.18C60.4257 245.703 60.8317 245.334 61.3487 245.072C61.8691 244.81 62.4657 244.679 63.1385 244.679C63.8213 244.679 64.4212 244.807 64.9382 245.062C65.4553 245.317 65.8563 245.667 66.1413 246.111C66.4297 246.555 66.5739 247.062 66.5739 247.632C66.5739 248.013 66.5009 248.388 66.3551 248.756C66.2093 249.124 65.9524 249.531 65.5845 249.979C65.2199 250.426 64.7079 250.968 64.0483 251.604L62.2933 253.389V253.459H66.728V255H59.7479ZM72.5858 255.139C71.8467 255.139 71.1904 255.015 70.617 254.766C70.0469 254.518 69.5995 254.178 69.2747 253.747C68.9532 253.313 68.7941 252.821 68.7974 252.271C68.7941 251.843 68.8869 251.45 69.0758 251.092C69.2647 250.734 69.5199 250.436 69.8414 250.197C70.1663 249.955 70.5275 249.801 70.9252 249.735V249.665C70.4016 249.549 69.9773 249.283 69.6525 248.865C69.331 248.444 69.1719 247.959 69.1752 247.408C69.1719 246.885 69.3178 246.417 69.6127 246.006C69.9077 245.595 70.3121 245.272 70.8258 245.037C71.3395 244.798 71.9262 244.679 72.5858 244.679C73.2387 244.679 73.8204 244.798 74.3308 245.037C74.8445 245.272 75.2489 245.595 75.5439 246.006C75.8422 246.417 75.9913 246.885 75.9913 247.408C75.9913 247.959 75.8272 248.444 75.4991 248.865C75.1743 249.283 74.755 249.549 74.2413 249.665V249.735C74.639 249.801 74.997 249.955 75.3152 250.197C75.6367 250.436 75.8919 250.734 76.0808 251.092C76.273 251.45 76.3691 251.843 76.3691 252.271C76.3691 252.821 76.2067 253.313 75.8819 253.747C75.5571 254.178 75.1097 254.518 74.5396 254.766C73.9728 255.015 73.3216 255.139 72.5858 255.139ZM72.5858 253.717C72.9669 253.717 73.2984 253.653 73.5801 253.523C73.8618 253.391 74.0806 253.205 74.2363 252.967C74.3921 252.728 74.4717 252.453 74.475 252.141C74.4717 251.817 74.3871 251.53 74.2214 251.281C74.059 251.029 73.8353 250.832 73.5502 250.69C73.2685 250.547 72.947 250.476 72.5858 250.476C72.2212 250.476 71.8964 250.547 71.6113 250.69C71.3263 250.832 71.1009 251.029 70.9352 251.281C70.7728 251.53 70.6932 251.817 70.6966 252.141C70.6932 252.453 70.7695 252.728 70.9252 252.967C71.081 253.202 71.2998 253.386 71.5815 253.518C71.8665 253.651 72.2013 253.717 72.5858 253.717ZM72.5858 249.079C72.8973 249.079 73.1724 249.016 73.411 248.89C73.653 248.764 73.8436 248.588 73.9828 248.363C74.122 248.138 74.1932 247.877 74.1966 247.582C74.1932 247.291 74.1236 247.036 73.9877 246.817C73.8519 246.595 73.6629 246.424 73.421 246.305C73.179 246.182 72.9006 246.121 72.5858 246.121C72.2643 246.121 71.9809 246.182 71.7356 246.305C71.4937 246.424 71.3047 246.595 71.1689 246.817C71.0363 247.036 70.9717 247.291 70.975 247.582C70.9717 247.877 71.0379 248.138 71.1738 248.363C71.313 248.585 71.5036 248.761 71.7456 248.89C71.9908 249.016 72.2709 249.079 72.5858 249.079Z" fill="#93979F"/>
<path d="M95.7479 255V253.668L99.2827 250.202C99.6207 249.861 99.9025 249.558 100.128 249.293C100.353 249.027 100.522 248.771 100.635 248.522C100.748 248.273 100.804 248.008 100.804 247.727C100.804 247.405 100.731 247.13 100.585 246.901C100.439 246.669 100.239 246.49 99.9837 246.364C99.7285 246.238 99.4384 246.175 99.1136 246.175C98.7789 246.175 98.4856 246.245 98.2337 246.384C97.9818 246.52 97.7862 246.714 97.647 246.966C97.5111 247.218 97.4432 247.518 97.4432 247.866H95.6882C95.6882 247.219 95.8357 246.658 96.1307 246.18C96.4257 245.703 96.8317 245.334 97.3487 245.072C97.8691 244.81 98.4657 244.679 99.1385 244.679C99.8213 244.679 100.421 244.807 100.938 245.062C101.455 245.317 101.856 245.667 102.141 246.111C102.43 246.555 102.574 247.062 102.574 247.632C102.574 248.013 102.501 248.388 102.355 248.756C102.209 249.124 101.952 249.531 101.585 249.979C101.22 250.426 100.708 250.968 100.048 251.604L98.2933 253.389V253.459H102.728V255H95.7479ZM108.476 244.679C108.964 244.682 109.438 244.768 109.898 244.938C110.362 245.103 110.78 245.375 111.151 245.753C111.522 246.127 111.817 246.629 112.036 247.259C112.255 247.889 112.364 248.668 112.364 249.596C112.367 250.471 112.275 251.253 112.086 251.942C111.9 252.629 111.633 253.209 111.285 253.683C110.937 254.156 110.518 254.518 110.028 254.766C109.537 255.015 108.985 255.139 108.372 255.139C107.729 255.139 107.159 255.013 106.662 254.761C106.168 254.509 105.769 254.165 105.464 253.727C105.159 253.29 104.971 252.789 104.902 252.226H106.716C106.809 252.63 106.998 252.952 107.283 253.19C107.572 253.426 107.934 253.543 108.372 253.543C109.078 253.543 109.622 253.237 110.003 252.624C110.384 252.01 110.574 251.159 110.574 250.068H110.505C110.342 250.36 110.132 250.612 109.873 250.824C109.615 251.033 109.322 251.193 108.993 251.306C108.669 251.419 108.324 251.475 107.959 251.475C107.363 251.475 106.826 251.333 106.349 251.048C105.875 250.763 105.498 250.371 105.22 249.874C104.945 249.377 104.806 248.809 104.802 248.169C104.802 247.506 104.955 246.911 105.26 246.384C105.568 245.854 105.997 245.436 106.547 245.131C107.098 244.823 107.741 244.672 108.476 244.679ZM108.481 246.17C108.123 246.17 107.8 246.258 107.512 246.434C107.227 246.606 107.001 246.842 106.836 247.14C106.673 247.435 106.592 247.765 106.592 248.129C106.595 248.491 106.677 248.819 106.836 249.114C106.998 249.409 107.219 249.642 107.497 249.815C107.779 249.987 108.1 250.073 108.461 250.073C108.73 250.073 108.98 250.022 109.212 249.919C109.444 249.816 109.646 249.674 109.819 249.491C109.994 249.306 110.13 249.095 110.226 248.86C110.326 248.625 110.374 248.376 110.371 248.114C110.371 247.766 110.288 247.445 110.122 247.15C109.96 246.855 109.736 246.618 109.451 246.439C109.169 246.26 108.846 246.17 108.481 246.17Z" fill="#93979F"/>
<path d="M135.193 255.139C134.477 255.139 133.841 255.017 133.284 254.771C132.731 254.526 132.293 254.185 131.972 253.747C131.65 253.31 131.479 252.804 131.46 252.231H133.329C133.345 252.506 133.437 252.746 133.602 252.952C133.768 253.154 133.988 253.311 134.263 253.424C134.539 253.537 134.847 253.593 135.188 253.593C135.553 253.593 135.876 253.53 136.158 253.404C136.439 253.275 136.66 253.096 136.819 252.867C136.978 252.638 137.056 252.375 137.053 252.077C137.056 251.768 136.976 251.497 136.814 251.261C136.652 251.026 136.416 250.842 136.108 250.71C135.803 250.577 135.435 250.511 135.004 250.511H134.104V249.089H135.004C135.359 249.089 135.669 249.027 135.934 248.905C136.202 248.782 136.413 248.61 136.565 248.388C136.718 248.162 136.792 247.902 136.789 247.607C136.792 247.319 136.728 247.069 136.595 246.857C136.466 246.641 136.282 246.474 136.043 246.354C135.808 246.235 135.531 246.175 135.213 246.175C134.902 246.175 134.613 246.232 134.348 246.344C134.083 246.457 133.869 246.618 133.707 246.827C133.544 247.032 133.458 247.277 133.448 247.562H131.673C131.687 246.992 131.851 246.492 132.165 246.061C132.484 245.627 132.908 245.289 133.438 245.047C133.969 244.802 134.563 244.679 135.223 244.679C135.902 244.679 136.492 244.807 136.993 245.062C137.497 245.314 137.886 245.653 138.161 246.081C138.436 246.509 138.574 246.981 138.574 247.498C138.577 248.071 138.408 248.552 138.067 248.94C137.729 249.327 137.285 249.581 136.734 249.7V249.78C137.45 249.879 137.999 250.144 138.38 250.575C138.764 251.003 138.955 251.535 138.952 252.171C138.952 252.741 138.789 253.252 138.464 253.702C138.143 254.15 137.699 254.501 137.132 254.756C136.569 255.012 135.922 255.139 135.193 255.139ZM144.586 255.194C143.767 255.194 143.064 254.987 142.478 254.572C141.894 254.155 141.445 253.553 141.131 252.768C140.819 251.979 140.663 251.029 140.663 249.919C140.666 248.809 140.824 247.864 141.135 247.085C141.45 246.303 141.899 245.706 142.483 245.295C143.069 244.884 143.77 244.679 144.586 244.679C145.401 244.679 146.102 244.884 146.689 245.295C147.275 245.706 147.724 246.303 148.036 247.085C148.351 247.867 148.508 248.812 148.508 249.919C148.508 251.033 148.351 251.984 148.036 252.773C147.724 253.558 147.275 254.158 146.689 254.572C146.105 254.987 145.404 255.194 144.586 255.194ZM144.586 253.638C145.222 253.638 145.724 253.325 146.092 252.698C146.463 252.068 146.649 251.142 146.649 249.919C146.649 249.11 146.564 248.431 146.395 247.881C146.226 247.33 145.988 246.916 145.68 246.638C145.371 246.356 145.007 246.215 144.586 246.215C143.953 246.215 143.452 246.53 143.084 247.16C142.716 247.786 142.531 248.706 142.528 249.919C142.524 250.731 142.605 251.414 142.771 251.967C142.94 252.521 143.179 252.938 143.487 253.22C143.795 253.499 144.162 253.638 144.586 253.638Z" fill="#93979F"/>
<path d="M171.193 255.139C170.477 255.139 169.841 255.017 169.284 254.771C168.731 254.526 168.293 254.185 167.972 253.747C167.65 253.31 167.479 252.804 167.46 252.231H169.329C169.345 252.506 169.437 252.746 169.602 252.952C169.768 253.154 169.988 253.311 170.263 253.424C170.539 253.537 170.847 253.593 171.188 253.593C171.553 253.593 171.876 253.53 172.158 253.404C172.439 253.275 172.66 253.096 172.819 252.867C172.978 252.638 173.056 252.375 173.053 252.077C173.056 251.768 172.976 251.497 172.814 251.261C172.652 251.026 172.416 250.842 172.108 250.71C171.803 250.577 171.435 250.511 171.004 250.511H170.104V249.089H171.004C171.359 249.089 171.669 249.027 171.934 248.905C172.202 248.782 172.413 248.61 172.565 248.388C172.718 248.162 172.792 247.902 172.789 247.607C172.792 247.319 172.728 247.069 172.595 246.857C172.466 246.641 172.282 246.474 172.043 246.354C171.808 246.235 171.531 246.175 171.213 246.175C170.902 246.175 170.613 246.232 170.348 246.344C170.083 246.457 169.869 246.618 169.707 246.827C169.544 247.032 169.458 247.277 169.448 247.562H167.673C167.687 246.992 167.851 246.492 168.165 246.061C168.484 245.627 168.908 245.289 169.438 245.047C169.969 244.802 170.563 244.679 171.223 244.679C171.902 244.679 172.492 244.807 172.993 245.062C173.497 245.314 173.886 245.653 174.161 246.081C174.436 246.509 174.574 246.981 174.574 247.498C174.577 248.071 174.408 248.552 174.067 248.94C173.729 249.327 173.285 249.581 172.734 249.7V249.78C173.45 249.879 173.999 250.144 174.38 250.575C174.764 251.003 174.955 251.535 174.952 252.171C174.952 252.741 174.789 253.252 174.464 253.702C174.143 254.15 173.699 254.501 173.132 254.756C172.569 255.012 171.922 255.139 171.193 255.139ZM182.331 244.818V255H180.486V246.613H180.427L178.045 248.134V246.444L180.576 244.818H182.331Z" fill="#93979F"/>
<path d="M23.7479 219V217.668L27.2827 214.202C27.6207 213.861 27.9025 213.558 28.1278 213.293C28.3532 213.027 28.5223 212.771 28.6349 212.522C28.7476 212.273 28.804 212.008 28.804 211.727C28.804 211.405 28.7311 211.13 28.5852 210.901C28.4394 210.669 28.2389 210.49 27.9837 210.364C27.7285 210.238 27.4384 210.175 27.1136 210.175C26.7789 210.175 26.4856 210.245 26.2337 210.384C25.9818 210.52 25.7862 210.714 25.647 210.966C25.5111 211.218 25.4432 211.518 25.4432 211.866H23.6882C23.6882 211.219 23.8357 210.658 24.1307 210.18C24.4257 209.703 24.8317 209.334 25.3487 209.072C25.8691 208.81 26.4657 208.679 27.1385 208.679C27.8213 208.679 28.4212 208.807 28.9382 209.062C29.4553 209.317 29.8563 209.667 30.1413 210.111C30.4297 210.555 30.5739 211.062 30.5739 211.632C30.5739 212.013 30.5009 212.388 30.3551 212.756C30.2093 213.124 29.9524 213.531 29.5845 213.979C29.2199 214.426 28.7079 214.968 28.0483 215.604L26.2933 217.389V217.459H30.728V219H23.7479ZM36.5858 219.194C35.7671 219.194 35.0645 218.987 34.4778 218.572C33.8945 218.155 33.4454 217.553 33.1305 216.768C32.819 215.979 32.6632 215.029 32.6632 213.919C32.6665 212.809 32.8239 211.864 33.1355 211.085C33.4503 210.303 33.8994 209.706 34.4828 209.295C35.0694 208.884 35.7704 208.679 36.5858 208.679C37.4011 208.679 38.1021 208.884 38.6887 209.295C39.2754 209.706 39.7245 210.303 40.036 211.085C40.3509 211.867 40.5083 212.812 40.5083 213.919C40.5083 215.033 40.3509 215.984 40.036 216.773C39.7245 217.558 39.2754 218.158 38.6887 218.572C38.1054 218.987 37.4044 219.194 36.5858 219.194ZM36.5858 217.638C37.2221 217.638 37.7243 217.325 38.0922 216.698C38.4634 216.068 38.649 215.142 38.649 213.919C38.649 213.11 38.5645 212.431 38.3954 211.881C38.2264 211.33 37.9877 210.916 37.6795 210.638C37.3713 210.356 37.0067 210.215 36.5858 210.215C35.9527 210.215 35.4522 210.53 35.0843 211.16C34.7164 211.786 34.5308 212.706 34.5275 213.919C34.5242 214.731 34.6054 215.414 34.7711 215.967C34.9402 216.521 35.1788 216.938 35.487 217.22C35.7953 217.499 36.1615 217.638 36.5858 217.638Z" fill="#93979F"/>
<path d="M59.7479 219V217.668L63.2827 214.202C63.6207 213.861 63.9025 213.558 64.1278 213.293C64.3532 213.027 64.5223 212.771 64.6349 212.522C64.7476 212.273 64.804 212.008 64.804 211.727C64.804 211.405 64.7311 211.13 64.5852 210.901C64.4394 210.669 64.2389 210.49 63.9837 210.364C63.7285 210.238 63.4384 210.175 63.1136 210.175C62.7789 210.175 62.4856 210.245 62.2337 210.384C61.9818 210.52 61.7862 210.714 61.647 210.966C61.5111 211.218 61.4432 211.518 61.4432 211.866H59.6882C59.6882 211.219 59.8357 210.658 60.1307 210.18C60.4257 209.703 60.8317 209.334 61.3487 209.072C61.8691 208.81 62.4657 208.679 63.1385 208.679C63.8213 208.679 64.4212 208.807 64.9382 209.062C65.4553 209.317 65.8563 209.667 66.1413 210.111C66.4297 210.555 66.5739 211.062 66.5739 211.632C66.5739 212.013 66.5009 212.388 66.3551 212.756C66.2093 213.124 65.9524 213.531 65.5845 213.979C65.2199 214.426 64.7079 214.968 64.0483 215.604L62.2933 217.389V217.459H66.728V219H59.7479ZM74.3308 208.818V219H72.4863V210.613H72.4267L70.0453 212.134V210.444L72.5758 208.818H74.3308Z" fill="#93979F"/>
<path d="M95.7479 219V217.668L99.2827 214.202C99.6207 213.861 99.9025 213.558 100.128 213.293C100.353 213.027 100.522 212.771 100.635 212.522C100.748 212.273 100.804 212.008 100.804 211.727C100.804 211.405 100.731 211.13 100.585 210.901C100.439 210.669 100.239 210.49 99.9837 210.364C99.7285 210.238 99.4384 210.175 99.1136 210.175C98.7789 210.175 98.4856 210.245 98.2337 210.384C97.9818 210.52 97.7862 210.714 97.647 210.966C97.5111 211.218 97.4432 211.518 97.4432 211.866H95.6882C95.6882 211.219 95.8357 210.658 96.1307 210.18C96.4257 209.703 96.8317 209.334 97.3487 209.072C97.8691 208.81 98.4657 208.679 99.1385 208.679C99.8213 208.679 100.421 208.807 100.938 209.062C101.455 209.317 101.856 209.667 102.141 210.111C102.43 210.555 102.574 211.062 102.574 211.632C102.574 212.013 102.501 212.388 102.355 212.756C102.209 213.124 101.952 213.531 101.585 213.979C101.22 214.426 100.708 214.968 100.048 215.604L98.2933 217.389V217.459H102.728V219H95.7479ZM105.14 219V217.668L108.675 214.202C109.013 213.861 109.295 213.558 109.52 213.293C109.746 213.027 109.915 212.771 110.028 212.522C110.14 212.273 110.197 212.008 110.197 211.727C110.197 211.405 110.124 211.13 109.978 210.901C109.832 210.669 109.631 210.49 109.376 210.364C109.121 210.238 108.831 210.175 108.506 210.175C108.171 210.175 107.878 210.245 107.626 210.384C107.374 210.52 107.179 210.714 107.04 210.966C106.904 211.218 106.836 211.518 106.836 211.866H105.081C105.081 211.219 105.228 210.658 105.523 210.18C105.818 209.703 106.224 209.334 106.741 209.072C107.262 208.81 107.858 208.679 108.531 208.679C109.214 208.679 109.814 208.807 110.331 209.062C110.848 209.317 111.249 209.667 111.534 210.111C111.822 210.555 111.966 211.062 111.966 211.632C111.966 212.013 111.894 212.388 111.748 212.756C111.602 213.124 111.345 213.531 110.977 213.979C110.613 214.426 110.1 214.968 109.441 215.604L107.686 217.389V217.459H112.121V219H105.14Z" fill="#93979F"/>
<path d="M131.748 219V217.668L135.283 214.202C135.621 213.861 135.902 213.558 136.128 213.293C136.353 213.027 136.522 212.771 136.635 212.522C136.748 212.273 136.804 212.008 136.804 211.727C136.804 211.405 136.731 211.13 136.585 210.901C136.439 210.669 136.239 210.49 135.984 210.364C135.728 210.238 135.438 210.175 135.114 210.175C134.779 210.175 134.486 210.245 134.234 210.384C133.982 210.52 133.786 210.714 133.647 210.966C133.511 211.218 133.443 211.518 133.443 211.866H131.688C131.688 211.219 131.836 210.658 132.131 210.18C132.426 209.703 132.832 209.334 133.349 209.072C133.869 208.81 134.466 208.679 135.138 208.679C135.821 208.679 136.421 208.807 136.938 209.062C137.455 209.317 137.856 209.667 138.141 210.111C138.43 210.555 138.574 211.062 138.574 211.632C138.574 212.013 138.501 212.388 138.355 212.756C138.209 213.124 137.952 213.531 137.585 213.979C137.22 214.426 136.708 214.968 136.048 215.604L134.293 217.389V217.459H138.728V219H131.748ZM144.586 219.139C143.87 219.139 143.233 219.017 142.677 218.771C142.123 218.526 141.686 218.185 141.364 217.747C141.043 217.31 140.872 216.804 140.852 216.231H142.721C142.738 216.506 142.829 216.746 142.995 216.952C143.161 217.154 143.381 217.311 143.656 217.424C143.931 217.537 144.239 217.593 144.581 217.593C144.945 217.593 145.269 217.53 145.55 217.404C145.832 217.275 146.052 217.096 146.211 216.867C146.371 216.638 146.448 216.375 146.445 216.077C146.448 215.768 146.369 215.497 146.206 215.261C146.044 215.026 145.809 214.842 145.501 214.71C145.196 214.577 144.828 214.511 144.397 214.511H143.497V213.089H144.397C144.751 213.089 145.061 213.027 145.327 212.905C145.595 212.782 145.805 212.61 145.958 212.388C146.11 212.162 146.185 211.902 146.182 211.607C146.185 211.319 146.12 211.069 145.988 210.857C145.858 210.641 145.675 210.474 145.436 210.354C145.201 210.235 144.924 210.175 144.606 210.175C144.294 210.175 144.006 210.232 143.741 210.344C143.475 210.457 143.262 210.618 143.099 210.827C142.937 211.032 142.851 211.277 142.841 211.562H141.066C141.079 210.992 141.243 210.492 141.558 210.061C141.876 209.627 142.3 209.289 142.831 209.047C143.361 208.802 143.956 208.679 144.616 208.679C145.295 208.679 145.885 208.807 146.385 209.062C146.889 209.314 147.279 209.653 147.554 210.081C147.829 210.509 147.966 210.981 147.966 211.498C147.97 212.071 147.801 212.552 147.459 212.94C147.121 213.327 146.677 213.581 146.127 213.7V213.78C146.843 213.879 147.391 214.144 147.773 214.575C148.157 215.003 148.348 215.535 148.344 216.171C148.344 216.741 148.182 217.252 147.857 217.702C147.536 218.15 147.091 218.501 146.525 218.756C145.961 219.012 145.315 219.139 144.586 219.139Z" fill="#93979F"/>
<path d="M167.748 219V217.668L171.283 214.202C171.621 213.861 171.902 213.558 172.128 213.293C172.353 213.027 172.522 212.771 172.635 212.522C172.748 212.273 172.804 212.008 172.804 211.727C172.804 211.405 172.731 211.13 172.585 210.901C172.439 210.669 172.239 210.49 171.984 210.364C171.728 210.238 171.438 210.175 171.114 210.175C170.779 210.175 170.486 210.245 170.234 210.384C169.982 210.52 169.786 210.714 169.647 210.966C169.511 211.218 169.443 211.518 169.443 211.866H167.688C167.688 211.219 167.836 210.658 168.131 210.18C168.426 209.703 168.832 209.334 169.349 209.072C169.869 208.81 170.466 208.679 171.138 208.679C171.821 208.679 172.421 208.807 172.938 209.062C173.455 209.317 173.856 209.667 174.141 210.111C174.43 210.555 174.574 211.062 174.574 211.632C174.574 212.013 174.501 212.388 174.355 212.756C174.209 213.124 173.952 213.531 173.585 213.979C173.22 214.426 172.708 214.968 172.048 215.604L170.293 217.389V217.459H174.728V219H167.748ZM176.613 217.111V215.644L180.934 208.818H182.157V210.906H181.411L178.503 215.515V215.594H184.533V217.111H176.613ZM181.471 219V216.663L181.491 216.007V208.818H183.231V219H181.471Z" fill="#93979F"/>
<path d="M203.748 219V217.668L207.283 214.202C207.621 213.861 207.902 213.558 208.128 213.293C208.353 213.027 208.522 212.771 208.635 212.522C208.748 212.273 208.804 212.008 208.804 211.727C208.804 211.405 208.731 211.13 208.585 210.901C208.439 210.669 208.239 210.49 207.984 210.364C207.728 210.238 207.438 210.175 207.114 210.175C206.779 210.175 206.486 210.245 206.234 210.384C205.982 210.52 205.786 210.714 205.647 210.966C205.511 211.218 205.443 211.518 205.443 211.866H203.688C203.688 211.219 203.836 210.658 204.131 210.18C204.426 209.703 204.832 209.334 205.349 209.072C205.869 208.81 206.466 208.679 207.138 208.679C207.821 208.679 208.421 208.807 208.938 209.062C209.455 209.317 209.856 209.667 210.141 210.111C210.43 210.555 210.574 211.062 210.574 211.632C210.574 212.013 210.501 212.388 210.355 212.756C210.209 213.124 209.952 213.531 209.585 213.979C209.22 214.426 208.708 214.968 208.048 215.604L206.293 217.389V217.459H210.728V219H203.748ZM216.571 219.139C215.908 219.139 215.315 219.015 214.791 218.766C214.267 218.514 213.851 218.17 213.543 217.732C213.238 217.295 213.076 216.794 213.056 216.231H214.846C214.879 216.648 215.059 216.99 215.388 217.255C215.716 217.517 216.11 217.648 216.571 217.648C216.932 217.648 217.254 217.565 217.535 217.399C217.817 217.233 218.039 217.003 218.202 216.708C218.364 216.413 218.443 216.077 218.44 215.699C218.443 215.314 218.362 214.973 218.197 214.675C218.031 214.376 217.804 214.143 217.515 213.974C217.227 213.801 216.896 213.715 216.521 213.715C216.216 213.712 215.916 213.768 215.621 213.884C215.326 214 215.093 214.153 214.92 214.342L213.255 214.068L213.787 208.818H219.693V210.359H215.313L215.02 213.059H215.079C215.268 212.837 215.535 212.653 215.88 212.507C216.224 212.358 216.602 212.283 217.013 212.283C217.63 212.283 218.18 212.429 218.664 212.721C219.148 213.009 219.529 213.407 219.807 213.914C220.086 214.421 220.225 215.001 220.225 215.654C220.225 216.327 220.069 216.927 219.758 217.454C219.449 217.978 219.02 218.39 218.47 218.692C217.923 218.99 217.29 219.139 216.571 219.139Z" fill="#93979F"/>
<path d="M239.748 219V217.668L243.283 214.202C243.621 213.861 243.902 213.558 244.128 213.293C244.353 213.027 244.522 212.771 244.635 212.522C244.748 212.273 244.804 212.008 244.804 211.727C244.804 211.405 244.731 211.13 244.585 210.901C244.439 210.669 244.239 210.49 243.984 210.364C243.728 210.238 243.438 210.175 243.114 210.175C242.779 210.175 242.486 210.245 242.234 210.384C241.982 210.52 241.786 210.714 241.647 210.966C241.511 211.218 241.443 211.518 241.443 211.866H239.688C239.688 211.219 239.836 210.658 240.131 210.18C240.426 209.703 240.832 209.334 241.349 209.072C241.869 208.81 242.466 208.679 243.138 208.679C243.821 208.679 244.421 208.807 244.938 209.062C245.455 209.317 245.856 209.667 246.141 210.111C246.43 210.555 246.574 211.062 246.574 211.632C246.574 212.013 246.501 212.388 246.355 212.756C246.209 213.124 245.952 213.531 245.585 213.979C245.22 214.426 244.708 214.968 244.048 215.604L242.293 217.389V217.459H246.728V219H239.748ZM252.685 219.139C252.198 219.136 251.722 219.051 251.258 218.886C250.794 218.717 250.377 218.443 250.006 218.065C249.634 217.684 249.339 217.179 249.121 216.549C248.902 215.916 248.794 215.132 248.797 214.197C248.797 213.326 248.89 212.549 249.076 211.866C249.261 211.183 249.528 210.606 249.876 210.136C250.224 209.662 250.644 209.3 251.134 209.052C251.628 208.803 252.18 208.679 252.79 208.679C253.429 208.679 253.996 208.805 254.49 209.057C254.987 209.309 255.388 209.653 255.693 210.091C255.998 210.525 256.187 211.016 256.26 211.562H254.445C254.352 211.171 254.162 210.86 253.873 210.628C253.588 210.393 253.227 210.275 252.79 210.275C252.084 210.275 251.54 210.581 251.159 211.195C250.781 211.808 250.59 212.65 250.587 213.72H250.657C250.819 213.429 251.03 213.178 251.288 212.969C251.547 212.761 251.838 212.6 252.163 212.487C252.491 212.371 252.838 212.313 253.202 212.313C253.799 212.313 254.334 212.456 254.808 212.741C255.285 213.026 255.663 213.419 255.942 213.919C256.22 214.416 256.358 214.986 256.354 215.629C256.358 216.299 256.205 216.9 255.897 217.434C255.589 217.964 255.159 218.382 254.609 218.687C254.059 218.992 253.418 219.143 252.685 219.139ZM252.675 217.648C253.037 217.648 253.36 217.56 253.645 217.384C253.93 217.209 254.155 216.972 254.321 216.673C254.487 216.375 254.568 216.04 254.564 215.669C254.568 215.304 254.488 214.975 254.326 214.68C254.167 214.385 253.946 214.151 253.665 213.979C253.383 213.806 253.061 213.72 252.7 213.72C252.432 213.72 252.181 213.772 251.949 213.874C251.717 213.977 251.515 214.12 251.343 214.302C251.171 214.481 251.035 214.69 250.935 214.928C250.839 215.164 250.789 215.415 250.786 215.684C250.789 216.039 250.872 216.365 251.035 216.663C251.197 216.962 251.421 217.2 251.706 217.379C251.991 217.558 252.314 217.648 252.675 217.648Z" fill="#93979F"/>
<path d="M28.9382 172.818V183H27.0938V174.613H27.0341L24.6527 176.134V174.444L27.1832 172.818H28.9382ZM36.5858 183.139C35.8699 183.139 35.2335 183.017 34.6767 182.771C34.1232 182.526 33.6857 182.185 33.3642 181.747C33.0427 181.31 32.872 180.804 32.8521 180.231H34.7214C34.738 180.506 34.8291 180.746 34.9949 180.952C35.1606 181.154 35.381 181.311 35.6561 181.424C35.9312 181.537 36.2394 181.593 36.5808 181.593C36.9454 181.593 37.2685 181.53 37.5502 181.404C37.832 181.275 38.0524 181.096 38.2115 180.867C38.3706 180.638 38.4484 180.375 38.4451 180.077C38.4484 179.768 38.3689 179.497 38.2065 179.261C38.0441 179.026 37.8088 178.842 37.5005 178.71C37.1956 178.577 36.8277 178.511 36.3968 178.511H35.497V177.089H36.3968C36.7515 177.089 37.0614 177.027 37.3265 176.905C37.595 176.782 37.8055 176.61 37.9579 176.388C38.1104 176.162 38.185 175.902 38.1816 175.607C38.185 175.319 38.1203 175.069 37.9877 174.857C37.8585 174.641 37.6745 174.474 37.4359 174.354C37.2006 174.235 36.9238 174.175 36.6056 174.175C36.2941 174.175 36.0057 174.232 35.7406 174.344C35.4754 174.457 35.2617 174.618 35.0993 174.827C34.9368 175.032 34.8507 175.277 34.8407 175.562H33.0659C33.0791 174.992 33.2432 174.492 33.5581 174.061C33.8762 173.627 34.3005 173.289 34.8308 173.047C35.3611 172.802 35.956 172.679 36.6156 172.679C37.295 172.679 37.885 172.807 38.3855 173.062C38.8893 173.314 39.2787 173.653 39.5538 174.081C39.8289 174.509 39.9664 174.981 39.9664 175.498C39.9698 176.071 39.8007 176.552 39.4593 176.94C39.1213 177.327 38.6771 177.581 38.127 177.7V177.78C38.8429 177.879 39.3914 178.144 39.7725 178.575C40.157 179.003 40.3476 179.535 40.3443 180.171C40.3443 180.741 40.1819 181.252 39.8571 181.702C39.5356 182.15 39.0914 182.501 38.5247 182.756C37.9612 183.012 37.3149 183.139 36.5858 183.139Z" fill="#93979F"/>
<path d="M64.9382 172.818V183H63.0938V174.613H63.0341L60.6527 176.134V174.444L63.1832 172.818H64.9382ZM68.6135 181.111V179.644L72.9338 172.818H74.1568V174.906H73.411L70.5027 179.515V179.594H76.5332V181.111H68.6135ZM73.4707 183V180.663L73.4906 180.007V172.818H75.2306V183H73.4707Z" fill="#93979F"/>
<path d="M100.938 172.818V183H99.0938V174.613H99.0341L96.6527 176.134V174.444L99.1832 172.818H100.938ZM108.571 183.139C107.908 183.139 107.315 183.015 106.791 182.766C106.267 182.514 105.851 182.17 105.543 181.732C105.238 181.295 105.076 180.794 105.056 180.231H106.846C106.879 180.648 107.059 180.99 107.388 181.255C107.716 181.517 108.11 181.648 108.571 181.648C108.932 181.648 109.254 181.565 109.535 181.399C109.817 181.233 110.039 181.003 110.202 180.708C110.364 180.413 110.443 180.077 110.44 179.699C110.443 179.314 110.362 178.973 110.197 178.675C110.031 178.376 109.804 178.143 109.515 177.974C109.227 177.801 108.896 177.715 108.521 177.715C108.216 177.712 107.916 177.768 107.621 177.884C107.326 178 107.093 178.153 106.92 178.342L105.255 178.068L105.787 172.818H111.693V174.359H107.313L107.02 177.059H107.079C107.268 176.837 107.535 176.653 107.88 176.507C108.224 176.358 108.602 176.283 109.013 176.283C109.63 176.283 110.18 176.429 110.664 176.721C111.148 177.009 111.529 177.407 111.807 177.914C112.086 178.421 112.225 179.001 112.225 179.654C112.225 180.327 112.069 180.927 111.758 181.454C111.449 181.978 111.02 182.39 110.47 182.692C109.923 182.99 109.29 183.139 108.571 183.139Z" fill="#93979F"/>
<path d="M136.938 172.818V183H135.094V174.613H135.034L132.653 176.134V174.444L135.183 172.818H136.938ZM144.685 183.139C144.198 183.136 143.722 183.051 143.258 182.886C142.794 182.717 142.377 182.443 142.006 182.065C141.634 181.684 141.339 181.179 141.121 180.549C140.902 179.916 140.794 179.132 140.797 178.197C140.797 177.326 140.89 176.549 141.076 175.866C141.261 175.183 141.528 174.606 141.876 174.136C142.224 173.662 142.644 173.3 143.134 173.052C143.628 172.803 144.18 172.679 144.79 172.679C145.429 172.679 145.996 172.805 146.49 173.057C146.987 173.309 147.388 173.653 147.693 174.091C147.998 174.525 148.187 175.016 148.26 175.562H146.445C146.352 175.171 146.162 174.86 145.873 174.628C145.588 174.393 145.227 174.275 144.79 174.275C144.084 174.275 143.54 174.581 143.159 175.195C142.781 175.808 142.59 176.65 142.587 177.72H142.657C142.819 177.429 143.03 177.178 143.288 176.969C143.547 176.761 143.838 176.6 144.163 176.487C144.491 176.371 144.838 176.313 145.202 176.313C145.799 176.313 146.334 176.456 146.808 176.741C147.285 177.026 147.663 177.419 147.942 177.919C148.22 178.416 148.358 178.986 148.354 179.629C148.358 180.299 148.205 180.9 147.897 181.434C147.589 181.964 147.159 182.382 146.609 182.687C146.059 182.992 145.418 183.143 144.685 183.139ZM144.675 181.648C145.037 181.648 145.36 181.56 145.645 181.384C145.93 181.209 146.155 180.972 146.321 180.673C146.487 180.375 146.568 180.04 146.564 179.669C146.568 179.304 146.488 178.975 146.326 178.68C146.167 178.385 145.946 178.151 145.665 177.979C145.383 177.806 145.061 177.72 144.7 177.72C144.432 177.72 144.181 177.772 143.949 177.874C143.717 177.977 143.515 178.12 143.343 178.302C143.171 178.481 143.035 178.69 142.935 178.928C142.839 179.164 142.789 179.415 142.786 179.684C142.789 180.039 142.872 180.365 143.035 180.663C143.197 180.962 143.421 181.2 143.706 181.379C143.991 181.558 144.314 181.648 144.675 181.648Z" fill="#93979F"/>
<path d="M172.938 172.818V183H171.094V174.613H171.034L168.653 176.134V174.444L171.183 172.818H172.938ZM177.762 183L182.092 174.429V174.359H177.066V172.818H184.001V174.394L179.676 183H177.762Z" fill="#93979F"/>
<path d="M208.938 172.818V183H207.094V174.613H207.034L204.653 176.134V174.444L207.183 172.818H208.938ZM216.586 183.139C215.847 183.139 215.19 183.015 214.617 182.766C214.047 182.518 213.599 182.178 213.275 181.747C212.953 181.313 212.794 180.821 212.797 180.271C212.794 179.843 212.887 179.45 213.076 179.092C213.265 178.734 213.52 178.436 213.841 178.197C214.166 177.955 214.528 177.801 214.925 177.735V177.665C214.402 177.549 213.977 177.283 213.653 176.865C213.331 176.444 213.172 175.959 213.175 175.408C213.172 174.885 213.318 174.417 213.613 174.006C213.908 173.595 214.312 173.272 214.826 173.037C215.34 172.798 215.926 172.679 216.586 172.679C217.239 172.679 217.82 172.798 218.331 173.037C218.845 173.272 219.249 173.595 219.544 174.006C219.842 174.417 219.991 174.885 219.991 175.408C219.991 175.959 219.827 176.444 219.499 176.865C219.174 177.283 218.755 177.549 218.241 177.665V177.735C218.639 177.801 218.997 177.955 219.315 178.197C219.637 178.436 219.892 178.734 220.081 179.092C220.273 179.45 220.369 179.843 220.369 180.271C220.369 180.821 220.207 181.313 219.882 181.747C219.557 182.178 219.11 182.518 218.54 182.766C217.973 183.015 217.322 183.139 216.586 183.139ZM216.586 181.717C216.967 181.717 217.298 181.653 217.58 181.523C217.862 181.391 218.081 181.205 218.236 180.967C218.392 180.728 218.472 180.453 218.475 180.141C218.472 179.817 218.387 179.53 218.221 179.281C218.059 179.029 217.835 178.832 217.55 178.69C217.269 178.547 216.947 178.476 216.586 178.476C216.221 178.476 215.896 178.547 215.611 178.69C215.326 178.832 215.101 179.029 214.935 179.281C214.773 179.53 214.693 179.817 214.697 180.141C214.693 180.453 214.769 180.728 214.925 180.967C215.081 181.202 215.3 181.386 215.581 181.518C215.867 181.651 216.201 181.717 216.586 181.717ZM216.586 177.079C216.897 177.079 217.172 177.016 217.411 176.89C217.653 176.764 217.844 176.588 217.983 176.363C218.122 176.138 218.193 175.877 218.197 175.582C218.193 175.291 218.124 175.036 217.988 174.817C217.852 174.595 217.663 174.424 217.421 174.305C217.179 174.182 216.901 174.121 216.586 174.121C216.264 174.121 215.981 174.182 215.736 174.305C215.494 174.424 215.305 174.595 215.169 174.817C215.036 175.036 214.972 175.291 214.975 175.582C214.972 175.877 215.038 176.138 215.174 176.363C215.313 176.585 215.504 176.761 215.746 176.89C215.991 177.016 216.271 177.079 216.586 177.079Z" fill="#93979F"/>
<path d="M244.938 172.818V183H243.094V174.613H243.034L240.653 176.134V174.444L243.183 172.818H244.938ZM252.476 172.679C252.964 172.682 253.438 172.768 253.898 172.938C254.362 173.103 254.78 173.375 255.151 173.753C255.522 174.127 255.817 174.629 256.036 175.259C256.255 175.889 256.364 176.668 256.364 177.596C256.367 178.471 256.275 179.253 256.086 179.942C255.9 180.629 255.633 181.209 255.285 181.683C254.937 182.156 254.518 182.518 254.028 182.766C253.537 183.015 252.985 183.139 252.372 183.139C251.729 183.139 251.159 183.013 250.662 182.761C250.168 182.509 249.769 182.165 249.464 181.727C249.159 181.29 248.971 180.789 248.902 180.226H250.716C250.809 180.63 250.998 180.952 251.283 181.19C251.572 181.426 251.934 181.543 252.372 181.543C253.078 181.543 253.622 181.237 254.003 180.624C254.384 180.01 254.574 179.159 254.574 178.068H254.505C254.342 178.36 254.132 178.612 253.873 178.824C253.615 179.033 253.322 179.193 252.993 179.306C252.669 179.419 252.324 179.475 251.959 179.475C251.363 179.475 250.826 179.333 250.349 179.048C249.875 178.763 249.498 178.371 249.22 177.874C248.945 177.377 248.806 176.809 248.802 176.169C248.802 175.506 248.955 174.911 249.26 174.384C249.568 173.854 249.997 173.436 250.547 173.131C251.098 172.823 251.741 172.672 252.476 172.679ZM252.481 174.17C252.123 174.17 251.8 174.258 251.512 174.434C251.227 174.606 251.001 174.842 250.836 175.14C250.673 175.435 250.592 175.765 250.592 176.129C250.595 176.491 250.677 176.819 250.836 177.114C250.998 177.409 251.219 177.642 251.497 177.815C251.779 177.987 252.1 178.073 252.461 178.073C252.73 178.073 252.98 178.022 253.212 177.919C253.444 177.816 253.646 177.674 253.819 177.491C253.994 177.306 254.13 177.095 254.226 176.86C254.326 176.625 254.374 176.376 254.371 176.114C254.371 175.766 254.288 175.445 254.122 175.15C253.96 174.855 253.736 174.618 253.451 174.439C253.169 174.26 252.846 174.17 252.481 174.17Z" fill="#93979F"/>
<path d="M31.7926 147.139C31.3054 147.136 30.8298 147.051 30.3658 146.886C29.9018 146.717 29.4841 146.443 29.1129 146.065C28.7417 145.684 28.4467 145.179 28.228 144.549C28.0092 143.916 27.9015 143.132 27.9048 142.197C27.9048 141.326 27.9976 140.549 28.1832 139.866C28.3688 139.183 28.6357 138.606 28.9837 138.136C29.3317 137.662 29.7509 137.3 30.2415 137.052C30.7353 136.803 31.2872 136.679 31.897 136.679C32.5367 136.679 33.1035 136.805 33.5973 137.057C34.0945 137.309 34.4955 137.653 34.8004 138.091C35.1054 138.525 35.2943 139.016 35.3672 139.562H33.5526C33.4598 139.171 33.2692 138.86 32.9808 138.628C32.6958 138.393 32.3345 138.275 31.897 138.275C31.1911 138.275 30.6475 138.581 30.2663 139.195C29.8885 139.808 29.6979 140.65 29.6946 141.72H29.7642C29.9266 141.429 30.1371 141.178 30.3956 140.969C30.6541 140.761 30.9458 140.6 31.2706 140.487C31.5987 140.371 31.9451 140.313 32.3097 140.313C32.9063 140.313 33.4415 140.456 33.9155 140.741C34.3928 141.026 34.7706 141.419 35.049 141.919C35.3274 142.416 35.465 142.986 35.4616 143.629C35.465 144.299 35.3125 144.9 35.0043 145.434C34.696 145.964 34.2668 146.382 33.7166 146.687C33.1664 146.992 32.5251 147.143 31.7926 147.139ZM31.7827 145.648C32.1439 145.648 32.4671 145.56 32.7521 145.384C33.0372 145.209 33.2625 144.972 33.4283 144.673C33.594 144.375 33.6752 144.04 33.6719 143.669C33.6752 143.304 33.5956 142.975 33.4332 142.68C33.2741 142.385 33.0537 142.151 32.772 141.979C32.4903 141.806 32.1688 141.72 31.8075 141.72C31.5391 141.72 31.2888 141.772 31.0568 141.874C30.8248 141.977 30.6226 142.12 30.4503 142.302C30.2779 142.481 30.142 142.69 30.0426 142.928C29.9465 143.164 29.8968 143.415 29.8935 143.684C29.8968 144.039 29.9796 144.365 30.142 144.663C30.3045 144.962 30.5282 145.2 30.8132 145.379C31.0982 145.558 31.4214 145.648 31.7827 145.648Z" fill="#93979F"/>
<g clip-path="url(#clip2_133_67439)">
<path d="M64.8693 147L69.1996 138.429V138.359H64.1733V136.818H71.1087V138.394L66.7834 147H64.8693Z" fill="#E22E65"/>
</g>
<path d="M103.693 147.139C102.954 147.139 102.298 147.015 101.724 146.766C101.154 146.518 100.707 146.178 100.382 145.747C100.061 145.313 99.9015 144.821 99.9048 144.271C99.9015 143.843 99.9943 143.45 100.183 143.092C100.372 142.734 100.627 142.436 100.949 142.197C101.274 141.955 101.635 141.801 102.033 141.735V141.665C101.509 141.549 101.085 141.283 100.76 140.865C100.438 140.444 100.279 139.959 100.283 139.408C100.279 138.885 100.425 138.417 100.72 138.006C101.015 137.595 101.42 137.272 101.933 137.037C102.447 136.798 103.034 136.679 103.693 136.679C104.346 136.679 104.928 136.798 105.438 137.037C105.952 137.272 106.356 137.595 106.651 138.006C106.95 138.417 107.099 138.885 107.099 139.408C107.099 139.959 106.935 140.444 106.607 140.865C106.282 141.283 105.862 141.549 105.349 141.665V141.735C105.746 141.801 106.104 141.955 106.423 142.197C106.744 142.436 106.999 142.734 107.188 143.092C107.38 143.45 107.477 143.843 107.477 144.271C107.477 144.821 107.314 145.313 106.989 145.747C106.665 146.178 106.217 146.518 105.647 146.766C105.08 147.015 104.429 147.139 103.693 147.139ZM103.693 145.717C104.074 145.717 104.406 145.653 104.688 145.523C104.969 145.391 105.188 145.205 105.344 144.967C105.5 144.728 105.579 144.453 105.582 144.141C105.579 143.817 105.495 143.53 105.329 143.281C105.166 143.029 104.943 142.832 104.658 142.69C104.376 142.547 104.054 142.476 103.693 142.476C103.329 142.476 103.004 142.547 102.719 142.69C102.434 142.832 102.208 143.029 102.043 143.281C101.88 143.53 101.801 143.817 101.804 144.141C101.801 144.453 101.877 144.728 102.033 144.967C102.188 145.202 102.407 145.386 102.689 145.518C102.974 145.651 103.309 145.717 103.693 145.717ZM103.693 141.079C104.005 141.079 104.28 141.016 104.518 140.89C104.76 140.764 104.951 140.588 105.09 140.363C105.229 140.138 105.301 139.877 105.304 139.582C105.301 139.291 105.231 139.036 105.095 138.817C104.959 138.595 104.77 138.424 104.528 138.305C104.286 138.182 104.008 138.121 103.693 138.121C103.372 138.121 103.088 138.182 102.843 138.305C102.601 138.424 102.412 138.595 102.276 138.817C102.144 139.036 102.079 139.291 102.082 139.582C102.079 139.877 102.145 140.138 102.281 140.363C102.42 140.585 102.611 140.761 102.853 140.89C103.098 141.016 103.378 141.079 103.693 141.079Z" fill="#93979F"/>
<g clip-path="url(#clip3_133_67439)">
<path d="M122 140C122 132.458 122 128.686 124.343 126.343C126.686 124 130.458 124 138 124H142C149.542 124 153.314 124 155.657 126.343C158 128.686 158 132.458 158 140V144C158 151.542 158 155.314 155.657 157.657C153.314 160 149.542 160 142 160H138C130.458 160 126.686 160 124.343 157.657C122 155.314 122 151.542 122 144V140Z" fill="#E22E65"/>
<path d="M139.584 136.679C140.071 136.682 140.545 136.768 141.006 136.938C141.47 137.103 141.887 137.375 142.259 137.753C142.63 138.127 142.925 138.629 143.143 139.259C143.362 139.889 143.472 140.668 143.472 141.596C143.475 142.471 143.382 143.253 143.193 143.942C143.008 144.629 142.741 145.209 142.393 145.683C142.045 146.156 141.625 146.518 141.135 146.766C140.644 147.015 140.093 147.139 139.479 147.139C138.836 147.139 138.266 147.013 137.769 146.761C137.275 146.509 136.876 146.165 136.571 145.727C136.266 145.29 136.079 144.789 136.009 144.226H137.824C137.917 144.63 138.106 144.952 138.391 145.19C138.679 145.426 139.042 145.543 139.479 145.543C140.185 145.543 140.729 145.237 141.11 144.624C141.491 144.01 141.682 143.159 141.682 142.068H141.612C141.45 142.36 141.239 142.612 140.981 142.824C140.722 143.033 140.429 143.193 140.101 143.306C139.776 143.419 139.431 143.475 139.067 143.475C138.47 143.475 137.933 143.333 137.456 143.048C136.982 142.763 136.606 142.371 136.327 141.874C136.052 141.377 135.913 140.809 135.91 140.169C135.91 139.506 136.062 138.911 136.367 138.384C136.675 137.854 137.105 137.436 137.655 137.131C138.205 136.823 138.848 136.672 139.584 136.679ZM139.589 138.17C139.231 138.17 138.908 138.258 138.619 138.434C138.334 138.606 138.109 138.842 137.943 139.14C137.781 139.435 137.7 139.765 137.7 140.129C137.703 140.491 137.784 140.819 137.943 141.114C138.106 141.409 138.326 141.642 138.604 141.815C138.886 141.987 139.208 142.073 139.569 142.073C139.837 142.073 140.088 142.022 140.32 141.919C140.552 141.816 140.754 141.674 140.926 141.491C141.102 141.306 141.238 141.095 141.334 140.86C141.433 140.625 141.481 140.376 141.478 140.114C141.478 139.766 141.395 139.445 141.229 139.15C141.067 138.855 140.843 138.618 140.558 138.439C140.277 138.26 139.953 138.17 139.589 138.17Z" fill="white"/>
</g>
<path d="M172.938 136.818V147H171.094V138.613H171.034L168.653 140.134V138.444L171.183 136.818H172.938ZM180.586 147.194C179.767 147.194 179.064 146.987 178.478 146.572C177.894 146.155 177.445 145.553 177.131 144.768C176.819 143.979 176.663 143.029 176.663 141.919C176.666 140.809 176.824 139.864 177.135 139.085C177.45 138.303 177.899 137.706 178.483 137.295C179.069 136.884 179.77 136.679 180.586 136.679C181.401 136.679 182.102 136.884 182.689 137.295C183.275 137.706 183.724 138.303 184.036 139.085C184.351 139.867 184.508 140.812 184.508 141.919C184.508 143.033 184.351 143.984 184.036 144.773C183.724 145.558 183.275 146.158 182.689 146.572C182.105 146.987 181.404 147.194 180.586 147.194ZM180.586 145.638C181.222 145.638 181.724 145.325 182.092 144.698C182.463 144.068 182.649 143.142 182.649 141.919C182.649 141.11 182.564 140.431 182.395 139.881C182.226 139.33 181.988 138.916 181.68 138.638C181.371 138.356 181.007 138.215 180.586 138.215C179.953 138.215 179.452 138.53 179.084 139.16C178.716 139.786 178.531 140.706 178.528 141.919C178.524 142.731 178.605 143.414 178.771 143.967C178.94 144.521 179.179 144.938 179.487 145.22C179.795 145.499 180.162 145.638 180.586 145.638Z" fill="#93979F"/>
<path d="M208.938 136.818V147H207.094V138.613H207.034L204.653 140.134V138.444L207.183 136.818H208.938ZM218.331 136.818V147H216.486V138.613H216.427L214.045 140.134V138.444L216.576 136.818H218.331Z" fill="#93979F"/>
<path d="M244.938 136.818V147H243.094V138.613H243.034L240.653 140.134V138.444L243.183 136.818H244.938ZM249.14 147V145.668L252.675 142.202C253.013 141.861 253.295 141.558 253.52 141.293C253.746 141.027 253.915 140.771 254.028 140.522C254.14 140.273 254.197 140.008 254.197 139.727C254.197 139.405 254.124 139.13 253.978 138.901C253.832 138.669 253.631 138.49 253.376 138.364C253.121 138.238 252.831 138.175 252.506 138.175C252.171 138.175 251.878 138.245 251.626 138.384C251.374 138.52 251.179 138.714 251.04 138.966C250.904 139.218 250.836 139.518 250.836 139.866H249.081C249.081 139.219 249.228 138.658 249.523 138.18C249.818 137.703 250.224 137.334 250.741 137.072C251.262 136.81 251.858 136.679 252.531 136.679C253.214 136.679 253.814 136.807 254.331 137.062C254.848 137.317 255.249 137.667 255.534 138.111C255.822 138.555 255.966 139.062 255.966 139.632C255.966 140.013 255.894 140.388 255.748 140.756C255.602 141.124 255.345 141.531 254.977 141.979C254.613 142.426 254.1 142.968 253.441 143.604L251.686 145.389V145.459H256.121V147H249.14Z" fill="#93979F"/>
<path d="M105.438 100.818V111H103.594V102.613H103.534L101.153 104.134V102.444L103.683 100.818H105.438Z" fill="#93979F"/>
<path d="M136.248 111V109.668L139.783 106.202C140.121 105.861 140.402 105.558 140.628 105.293C140.853 105.027 141.022 104.771 141.135 104.522C141.248 104.273 141.304 104.008 141.304 103.727C141.304 103.405 141.231 103.13 141.085 102.901C140.939 102.669 140.739 102.49 140.484 102.364C140.228 102.238 139.938 102.175 139.614 102.175C139.279 102.175 138.986 102.245 138.734 102.384C138.482 102.52 138.286 102.714 138.147 102.966C138.011 103.218 137.943 103.518 137.943 103.866H136.188C136.188 103.219 136.336 102.658 136.631 102.18C136.926 101.703 137.332 101.334 137.849 101.072C138.369 100.81 138.966 100.679 139.638 100.679C140.321 100.679 140.921 100.807 141.438 101.062C141.955 101.317 142.356 101.667 142.641 102.111C142.93 102.555 143.074 103.062 143.074 103.632C143.074 104.013 143.001 104.388 142.855 104.756C142.709 105.124 142.452 105.531 142.085 105.979C141.72 106.426 141.208 106.968 140.548 107.604L138.793 109.389V109.459H143.228V111H136.248Z" fill="#93979F"/>
<path d="M175.693 111.139C174.977 111.139 174.341 111.017 173.784 110.771C173.231 110.526 172.793 110.185 172.472 109.747C172.15 109.31 171.979 108.804 171.96 108.231H173.829C173.845 108.506 173.937 108.746 174.102 108.952C174.268 109.154 174.488 109.311 174.763 109.424C175.039 109.537 175.347 109.593 175.688 109.593C176.053 109.593 176.376 109.53 176.658 109.404C176.939 109.275 177.16 109.096 177.319 108.867C177.478 108.638 177.556 108.375 177.553 108.077C177.556 107.768 177.476 107.497 177.314 107.261C177.152 107.026 176.916 106.842 176.608 106.71C176.303 106.577 175.935 106.511 175.504 106.511H174.604V105.089H175.504C175.859 105.089 176.169 105.027 176.434 104.905C176.702 104.782 176.913 104.61 177.065 104.388C177.218 104.162 177.292 103.902 177.289 103.607C177.292 103.319 177.228 103.069 177.095 102.857C176.966 102.641 176.782 102.474 176.543 102.354C176.308 102.235 176.031 102.175 175.713 102.175C175.402 102.175 175.113 102.232 174.848 102.344C174.583 102.457 174.369 102.618 174.207 102.827C174.044 103.032 173.958 103.277 173.948 103.562H172.173C172.187 102.992 172.351 102.492 172.665 102.061C172.984 101.627 173.408 101.289 173.938 101.047C174.469 100.802 175.063 100.679 175.723 100.679C176.402 100.679 176.992 100.807 177.493 101.062C177.997 101.314 178.386 101.653 178.661 102.081C178.936 102.509 179.074 102.981 179.074 103.498C179.077 104.071 178.908 104.552 178.567 104.94C178.229 105.327 177.785 105.581 177.234 105.7V105.78C177.95 105.879 178.499 106.144 178.88 106.575C179.264 107.003 179.455 107.535 179.452 108.171C179.452 108.741 179.289 109.252 178.964 109.702C178.643 110.15 178.199 110.501 177.632 110.756C177.069 111.012 176.422 111.139 175.693 111.139Z" fill="#93979F"/>
<path d="M207.721 109.111V107.644L212.041 100.818H213.264V102.906H212.518L209.61 107.515V107.594H215.641V109.111H207.721ZM212.578 111V108.663L212.598 108.007V100.818H214.338V111H212.578Z" fill="#93979F"/>
<path d="M247.678 111.139C247.015 111.139 246.422 111.015 245.898 110.766C245.375 110.514 244.959 110.17 244.651 109.732C244.346 109.295 244.183 108.794 244.163 108.231H245.953C245.986 108.648 246.167 108.99 246.495 109.255C246.823 109.517 247.218 109.648 247.678 109.648C248.04 109.648 248.361 109.565 248.643 109.399C248.924 109.233 249.147 109.003 249.309 108.708C249.471 108.413 249.551 108.077 249.548 107.699C249.551 107.314 249.47 106.973 249.304 106.675C249.138 106.376 248.911 106.143 248.623 105.974C248.335 105.801 248.003 105.715 247.629 105.715C247.324 105.712 247.024 105.768 246.729 105.884C246.434 106 246.2 106.153 246.028 106.342L244.362 106.068L244.894 100.818H250.8V102.359H246.42L246.127 105.059H246.187C246.376 104.837 246.643 104.653 246.987 104.507C247.332 104.358 247.71 104.283 248.121 104.283C248.737 104.283 249.287 104.429 249.771 104.721C250.255 105.009 250.636 105.407 250.915 105.914C251.193 106.421 251.332 107.001 251.332 107.654C251.332 108.327 251.177 108.927 250.865 109.454C250.557 109.978 250.128 110.39 249.577 110.692C249.031 110.99 248.397 111.139 247.678 111.139Z" fill="#93979F"/>
<path d="M25.8194 84V77.4545H31.1589V84H29.9103V78.554H27.0595V84H25.8194ZM37.2985 80.1776V81.2812H33.753V80.1776H37.2985ZM34.111 77.4545V84H32.8624V77.4545H34.111ZM38.1891 77.4545V84H36.9448V77.4545H38.1891Z" fill="#ACAFB5"/>
<path d="M62.2061 84V77.4545H64.9206C65.6593 77.4545 66.2445 77.6122 66.6763 77.9276C67.1081 78.2401 67.324 78.6648 67.324 79.2017C67.324 79.5852 67.2019 79.8892 66.9576 80.1136C66.7132 80.3381 66.3894 80.4886 65.986 80.5653C66.2786 80.5994 66.5471 80.6875 66.7914 80.8295C67.0357 80.9687 67.2317 81.1562 67.3794 81.392C67.53 81.6278 67.6053 81.9091 67.6053 82.2358C67.6053 82.5824 67.5158 82.8892 67.3368 83.1562C67.1578 83.4205 66.8979 83.6278 66.557 83.7784C66.2189 83.9261 65.8113 84 65.334 84H62.2061ZM63.4036 82.9347H65.334C65.6493 82.9347 65.8965 82.8594 66.0755 82.7088C66.2544 82.5582 66.3439 82.3537 66.3439 82.0952C66.3439 81.7912 66.2544 81.5526 66.0755 81.3793C65.8965 81.2031 65.6493 81.1151 65.334 81.1151H63.4036V82.9347ZM63.4036 80.1818H64.9334C65.1721 80.1818 65.3766 80.1477 65.5471 80.0795C65.7203 80.0114 65.8525 79.9148 65.9434 79.7898C66.0371 79.6619 66.084 79.5114 66.084 79.3381C66.084 79.0852 65.9803 78.8878 65.7729 78.7457C65.5655 78.6037 65.2814 78.5327 64.9206 78.5327H63.4036V80.1818ZM68.6365 78.554V77.4545H74.1593V78.554H72.0243V84H70.78V78.554H68.6365Z" fill="#ACAFB5"/>
<path d="M100.506 84.1321C99.8727 84.1321 99.3272 83.9886 98.8699 83.7017C98.4153 83.4119 98.0659 83.0128 97.8216 82.5043C97.5772 81.9957 97.4551 81.4134 97.4551 80.7571C97.4551 80.0923 97.5801 79.5057 97.8301 78.9972C98.0801 78.4858 98.4324 78.0866 98.8869 77.7997C99.3414 77.5128 99.877 77.3693 100.493 77.3693C100.991 77.3693 101.434 77.4616 101.823 77.6463C102.212 77.8281 102.526 78.0838 102.765 78.4134C103.006 78.7429 103.15 79.1278 103.195 79.5682H101.955C101.887 79.2614 101.731 78.9972 101.486 78.7756C101.245 78.554 100.921 78.4432 100.515 78.4432C100.16 78.4432 99.8485 78.5369 99.5815 78.7244C99.3173 78.9091 99.1113 79.1733 98.9636 79.517C98.8159 79.858 98.742 80.2614 98.742 80.7273C98.742 81.2045 98.8145 81.6165 98.9593 81.9631C99.1042 82.3097 99.3088 82.5781 99.573 82.7685C99.84 82.9588 100.154 83.054 100.515 83.054C100.756 83.054 100.975 83.0099 101.171 82.9219C101.37 82.831 101.536 82.7017 101.67 82.5341C101.806 82.3665 101.901 82.1648 101.955 81.929H103.195C103.15 82.3523 103.012 82.7301 102.782 83.0625C102.552 83.3949 102.243 83.6562 101.857 83.8466C101.474 84.0369 101.023 84.1321 100.506 84.1321ZM104.558 86.4545V77.4545H105.802V78.5156H105.909C105.982 78.3793 106.089 78.2216 106.228 78.0426C106.367 77.8636 106.561 77.7074 106.808 77.5739C107.055 77.4375 107.382 77.3693 107.788 77.3693C108.316 77.3693 108.788 77.5028 109.203 77.7699C109.617 78.0369 109.943 78.4219 110.178 78.9247C110.417 79.4276 110.536 80.0327 110.536 80.7401C110.536 81.4474 110.419 82.054 110.183 82.5597C109.947 83.0625 109.623 83.4503 109.211 83.723C108.799 83.9929 108.329 84.1278 107.801 84.1278C107.403 84.1278 107.078 84.0611 106.825 83.9276C106.575 83.794 106.379 83.6378 106.237 83.4588C106.095 83.2798 105.985 83.1207 105.909 82.9815H105.832V86.4545H104.558ZM105.806 80.7273C105.806 81.1875 105.873 81.5909 106.007 81.9375C106.14 82.2841 106.333 82.5554 106.586 82.7514C106.839 82.9446 107.149 83.0412 107.515 83.0412C107.896 83.0412 108.214 82.9403 108.47 82.7386C108.725 82.5341 108.919 82.2571 109.049 81.9077C109.183 81.5582 109.249 81.1648 109.249 80.7273C109.249 80.2955 109.184 79.9077 109.053 79.5639C108.926 79.2202 108.732 78.9489 108.474 78.75C108.218 78.5511 107.899 78.4517 107.515 78.4517C107.146 78.4517 106.833 78.5469 106.578 78.7372C106.325 78.9276 106.133 79.1932 106.002 79.5341C105.872 79.875 105.806 80.2727 105.806 80.7273Z" fill="#ACAFB5"/>
<path d="M139.607 77.4545V84H138.363V77.4545H139.607ZM139.066 80.4929V81.5923C138.87 81.6719 138.662 81.7429 138.444 81.8054C138.225 81.8651 137.995 81.9119 137.753 81.946C137.512 81.9801 137.26 81.9972 136.999 81.9972C136.189 81.9972 135.546 81.7997 135.069 81.4048C134.591 81.0071 134.353 80.3991 134.353 79.581V77.4418H135.593V79.581C135.593 79.8906 135.65 80.142 135.763 80.3352C135.877 80.5284 136.039 80.6705 136.249 80.7614C136.459 80.8523 136.709 80.8977 136.999 80.8977C137.382 80.8977 137.736 80.8622 138.06 80.7912C138.387 80.7173 138.722 80.6179 139.066 80.4929ZM140.49 78.554V77.4545H146.013V78.554H143.878V84H142.634V78.554H140.49Z" fill="#ACAFB5"/>
<path d="M170.306 84V77.4545H175.645V84H174.397V78.554H171.546V84H170.306ZM176.537 78.554V77.4545H182.06V78.554H179.925V84H178.68V78.554H176.537Z" fill="#ACAFB5"/>
<path d="M208.623 84.1321C207.99 84.1321 207.444 83.9886 206.987 83.7017C206.532 83.4119 206.183 83.0128 205.939 82.5043C205.694 81.9957 205.572 81.4134 205.572 80.7571C205.572 80.0923 205.697 79.5057 205.947 78.9972C206.197 78.4858 206.55 78.0866 207.004 77.7997C207.459 77.5128 207.994 77.3693 208.611 77.3693C209.108 77.3693 209.551 77.4616 209.94 77.6463C210.329 77.8281 210.643 78.0838 210.882 78.4134C211.123 78.7429 211.267 79.1278 211.312 79.5682H210.072C210.004 79.2614 209.848 78.9972 209.604 78.7756C209.362 78.554 209.038 78.4432 208.632 78.4432C208.277 78.4432 207.966 78.5369 207.699 78.7244C207.434 78.9091 207.229 79.1733 207.081 79.517C206.933 79.858 206.859 80.2614 206.859 80.7273C206.859 81.2045 206.932 81.6165 207.077 81.9631C207.221 82.3097 207.426 82.5781 207.69 82.7685C207.957 82.9588 208.271 83.054 208.632 83.054C208.873 83.054 209.092 83.0099 209.288 82.9219C209.487 82.831 209.653 82.7017 209.787 82.5341C209.923 82.3665 210.018 82.1648 210.072 81.929H211.312C211.267 82.3523 211.129 82.7301 210.899 83.0625C210.669 83.3949 210.361 83.6562 209.974 83.8466C209.591 84.0369 209.14 84.1321 208.623 84.1321ZM217.725 75.017L218.253 75.8224C218.057 76.0014 217.834 76.1293 217.584 76.206C217.337 76.2798 217.051 76.3267 216.727 76.3466C216.404 76.3636 216.033 76.3793 215.615 76.3935C215.144 76.4077 214.756 76.5099 214.452 76.7003C214.148 76.8878 213.914 77.1662 213.749 77.5355C213.587 77.902 213.482 78.3622 213.433 78.9162H213.514C213.727 78.5099 214.023 78.206 214.401 78.0043C214.781 77.8026 215.209 77.7017 215.683 77.7017C216.212 77.7017 216.682 77.8224 217.094 78.0639C217.506 78.3054 217.83 78.6591 218.066 79.125C218.304 79.5881 218.423 80.1548 218.423 80.8253C218.423 81.5043 218.298 82.0909 218.048 82.5852C217.801 83.0795 217.452 83.4616 217 83.7315C216.551 83.9986 216.021 84.1321 215.411 84.1321C214.8 84.1321 214.267 83.9943 213.813 83.7188C213.361 83.4403 213.01 83.0284 212.76 82.483C212.513 81.9375 212.389 81.2642 212.389 80.4631V79.8153C212.389 78.3182 212.656 77.1918 213.191 76.4361C213.725 75.6804 214.523 75.2926 215.585 75.2727C215.929 75.2642 216.236 75.2628 216.506 75.2685C216.776 75.2713 217.012 75.2585 217.213 75.2301C217.418 75.1989 217.588 75.1278 217.725 75.017ZM215.415 83.0625C215.77 83.0625 216.075 82.973 216.331 82.794C216.59 82.6122 216.789 82.3551 216.928 82.0227C217.067 81.6903 217.137 81.2983 217.137 80.8466C217.137 80.4034 217.067 80.027 216.928 79.7173C216.789 79.4077 216.59 79.1719 216.331 79.0099C216.073 78.8452 215.763 78.7628 215.402 78.7628C215.135 78.7628 214.896 78.8097 214.686 78.9034C214.476 78.9943 214.296 79.1293 214.145 79.3082C213.997 79.4872 213.882 79.706 213.8 79.9645C213.72 80.2202 213.678 80.5142 213.672 80.8466C213.672 81.5227 213.827 82.0611 214.137 82.4616C214.449 82.8622 214.875 83.0625 215.415 83.0625Z" fill="#ACAFB5"/>
<path d="M242.054 84V77.4545H244.768C245.507 77.4545 246.092 77.6122 246.524 77.9276C246.956 78.2401 247.172 78.6648 247.172 79.2017C247.172 79.5852 247.05 79.8892 246.805 80.1136C246.561 80.3381 246.237 80.4886 245.834 80.5653C246.126 80.5994 246.395 80.6875 246.639 80.8295C246.883 80.9687 247.079 81.1562 247.227 81.392C247.378 81.6278 247.453 81.9091 247.453 82.2358C247.453 82.5824 247.363 82.8892 247.184 83.1562C247.006 83.4205 246.746 83.6278 246.405 83.7784C246.067 83.9261 245.659 84 245.182 84H242.054ZM243.251 82.9347H245.182C245.497 82.9347 245.744 82.8594 245.923 82.7088C246.102 82.5582 246.192 82.3537 246.192 82.0952C246.192 81.7912 246.102 81.5526 245.923 81.3793C245.744 81.2031 245.497 81.1151 245.182 81.1151H243.251V82.9347ZM243.251 80.1818H244.781C245.02 80.1818 245.224 80.1477 245.395 80.0795C245.568 80.0114 245.7 79.9148 245.791 79.7898C245.885 79.6619 245.932 79.5114 245.932 79.3381C245.932 79.0852 245.828 78.8878 245.621 78.7457C245.413 78.6037 245.129 78.5327 244.768 78.5327H243.251V80.1818ZM251.608 84.1321C250.974 84.1321 250.429 83.9886 249.971 83.7017C249.517 83.4119 249.167 83.0128 248.923 82.5043C248.679 81.9957 248.557 81.4134 248.557 80.7571C248.557 80.0923 248.682 79.5057 248.932 78.9972C249.182 78.4858 249.534 78.0866 249.988 77.7997C250.443 77.5128 250.979 77.3693 251.595 77.3693C252.092 77.3693 252.535 77.4616 252.925 77.6463C253.314 77.8281 253.628 78.0838 253.866 78.4134C254.108 78.7429 254.251 79.1278 254.297 79.5682H253.057C252.988 79.2614 252.832 78.9972 252.588 78.7756C252.346 78.554 252.023 78.4432 251.616 78.4432C251.261 78.4432 250.95 78.5369 250.683 78.7244C250.419 78.9091 250.213 79.1733 250.065 79.517C249.917 79.858 249.844 80.2614 249.844 80.7273C249.844 81.2045 249.916 81.6165 250.061 81.9631C250.206 82.3097 250.41 82.5781 250.675 82.7685C250.942 82.9588 251.256 83.054 251.616 83.054C251.858 83.054 252.077 83.0099 252.273 82.9219C252.471 82.831 252.638 82.7017 252.771 82.5341C252.907 82.3665 253.003 82.1648 253.057 81.929H254.297C254.251 82.3523 254.113 82.7301 253.883 83.0625C253.653 83.3949 253.345 83.6562 252.959 83.8466C252.575 84.0369 252.125 84.1321 251.608 84.1321Z" fill="#ACAFB5"/>
</g>
<defs>
<clipPath id="clip0_133_67439">
<path d="M0 16C0 7.16344 7.16344 0 16 0H264C272.837 0 280 7.16344 280 16V264C280 272.837 272.837 280 264 280H16C7.16344 280 0 272.837 0 264V16Z" fill="white"/>
</clipPath>
<clipPath id="clip1_133_67439">
<rect width="153" height="36" fill="white" transform="translate(63.5 12)"/>
</clipPath>
<clipPath id="clip2_133_67439">
<path d="M50 140C50 132.458 50 128.686 52.3431 126.343C54.6863 124 58.4575 124 66 124H70C77.5425 124 81.3137 124 83.6569 126.343C86 128.686 86 132.458 86 140V144C86 151.542 86 155.314 83.6569 157.657C81.3137 160 77.5425 160 70 160H66C58.4575 160 54.6863 160 52.3431 157.657C50 155.314 50 151.542 50 144V140Z" fill="white"/>
</clipPath>
<clipPath id="clip3_133_67439">
<path d="M122 140C122 132.458 122 128.686 124.343 126.343C126.686 124 130.458 124 138 124H142C149.542 124 153.314 124 155.657 126.343C158 128.686 158 132.458 158 140V144C158 151.542 158 155.314 155.657 157.657C153.314 160 149.542 160 142 160H138C130.458 160 126.686 160 124.343 157.657C122 155.314 122 151.542 122 144V140Z" fill="white"/>
</clipPath>
</defs>
</svg>
