<svg width="52" height="60" viewBox="0 0 52 60" fill="none" xmlns="http://www.w3.org/2000/svg">
<g filter="url(#filter0_f_133_67991)">
<ellipse cx="26" cy="53.5" rx="7" ry="2.5" fill="black" fill-opacity="0.2"/>
</g>
<g filter="url(#filter1_d_133_67991)">
<path fill-rule="evenodd" clip-rule="evenodd" d="M26 4C37.598 4 47 13.402 47 25C47 33.8926 41.4727 41.4942 33.6663 44.5567L27.1961 53.4007C27.0612 53.5858 26.8821 53.7369 26.6739 53.8412C26.4657 53.9455 26.2346 54 26 54C25.7654 54 25.5343 53.9455 25.3261 53.8412C25.1179 53.7369 24.9388 53.5858 24.8039 53.4007L18.3337 44.5567C10.5273 41.4941 5 33.8926 5 25C5 13.402 14.402 4 26 4Z" fill="#FA5300"/>
</g>
<path d="M43 25C43 15.6112 35.3888 8 26 8C16.6112 8 9 15.6112 9 25C9 34.3888 16.6112 42 26 42C35.3888 42 43 34.3888 43 25Z" fill="white"/>
<path d="M19.6695 22.9144L22.7317 18.7713C24.711 16.0933 25.7007 14.7542 26.6241 15.0372C27.5474 15.3202 27.5474 16.9625 27.5474 20.2471V20.5568C27.5474 21.7415 27.5474 22.3339 27.926 22.7054L27.946 22.7247C28.3327 23.0884 28.9492 23.0884 30.1822 23.0884C32.4011 23.0884 33.5106 23.0884 33.8855 23.7613C33.8917 23.7724 33.8977 23.7837 33.9036 23.795C34.2576 24.4784 33.6152 25.3475 32.3304 27.0857L29.2683 31.2287C27.2889 33.9067 26.2992 35.2458 25.3758 34.9628C24.4525 34.6798 24.4525 33.0375 24.4525 29.7528L24.4526 29.4433C24.4526 28.2585 24.4526 27.6662 24.074 27.2946L24.054 27.2754C23.6673 26.9117 23.0508 26.9117 21.8178 26.9117C19.5989 26.9117 18.4894 26.9117 18.1145 26.2387C18.1083 26.2276 18.1023 26.2164 18.0964 26.205C17.7424 25.5217 18.3848 24.6526 19.6695 22.9144Z" fill="#FA5300"/>
<defs>
<filter id="filter0_f_133_67991" x="17" y="49" width="18" height="9" filterUnits="userSpaceOnUse" color-interpolation-filters="sRGB">
<feFlood flood-opacity="0" result="BackgroundImageFix"/>
<feBlend mode="normal" in="SourceGraphic" in2="BackgroundImageFix" result="shape"/>
<feGaussianBlur stdDeviation="1" result="effect1_foregroundBlur_133_67991"/>
</filter>
<filter id="filter1_d_133_67991" x="0" y="0" width="52" height="60" filterUnits="userSpaceOnUse" color-interpolation-filters="sRGB">
<feFlood flood-opacity="0" result="BackgroundImageFix"/>
<feColorMatrix in="SourceAlpha" type="matrix" values="0 0 0 0 0 0 0 0 0 0 0 0 0 0 0 0 0 0 127 0" result="hardAlpha"/>
<feOffset dy="1"/>
<feGaussianBlur stdDeviation="2.5"/>
<feComposite in2="hardAlpha" operator="out"/>
<feColorMatrix type="matrix" values="0 0 0 0 0 0 0 0 0 0 0 0 0 0 0 0 0 0 0.1 0"/>
<feBlend mode="normal" in2="BackgroundImageFix" result="effect1_dropShadow_133_67991"/>
<feBlend mode="normal" in="SourceGraphic" in2="effect1_dropShadow_133_67991" result="shape"/>
</filter>
</defs>
</svg>
